<?xml version="1.0" encoding="utf-8"?>
<!-- Generator: Adobe Illustrator 25.0.0, SVG Export Plug-In . SVG Version: 6.00 Build 0)  -->
<svg version="1.1" xmlns="http://www.w3.org/2000/svg" xmlns:xlink="http://www.w3.org/1999/xlink" x="0px" y="0px"
	 viewBox="0 0 4096 4096" style="enable-background:new 0 0 4096 4096;" xml:space="preserve">
<style type="text/css">
	.st0{fill:#FFFFFF;}
	.st1{fill:#036EB7;}
</style>
<g id="图层_15">
	<rect class="st0" width="4097.35" height="4097.35"/>
</g>
<g id="图层_12">
	<g>
		<path class="st1" d="M1084.25,1786.32v-131c0-3.46,0.24-10.86,0.72-22.2c-1.69,4.58-3,8.08-3.92,10.49
			c-0.93,2.41-3.6,9.05-8.02,19.9l-49.94,122.8h-14.96l-52.59-126.78c-3.38-7.8-6.8-16.6-10.25-26.42c0.16,4.58,0.3,9.19,0.42,13.81
			c0.12,4.63,0.18,9.23,0.18,13.81v125.57h-15.32v-169.96h22.8l50.9,121.71c2.73,6.92,6.51,17.09,11.34,30.52
			c1.93-5.15,3.86-10.21,5.79-15.2c1.93-4.99,3.94-10.01,6.03-15.08l49.7-121.95h22.56v169.96H1084.25z"/>
		<path class="st1" d="M1144.45,1786.32v-169.96h16.16v169.96H1144.45z"/>
		<path class="st1" d="M1320.92,1786.32l-101.45-151.02c0.72,13.03,1.09,23.48,1.09,31.36v119.66h-15.2v-169.96h18.94l102.29,152.11
			c-0.89-11.34-1.33-22.64-1.33-33.9v-118.21h15.44v169.96H1320.92z"/>
		<path class="st1" d="M1385.34,1786.32v-169.96h88.42v13.51h-72.25v62.36h64.9v13.39h-64.9v67.19h77.2v13.51H1385.34z"/>
		<path class="st1" d="M1572.18,1788.74c-21.95,0-39.14-7.86-51.57-23.58c-12.42-15.72-18.64-37.25-18.64-64.59
			c0-27.34,6.35-48.63,19.06-63.87c12.71-15.24,30.32-22.86,52.83-22.86c14.39,0,26.52,2.9,36.37,8.68
			c9.85,5.79,17.55,15.04,23.1,27.74l-14.96,6.27c-4.1-10.29-9.87-17.69-17.31-22.2c-7.44-4.5-16.51-6.76-27.2-6.76
			c-17.69,0-31.34,6.47-40.95,19.42c-9.61,12.95-14.41,30.8-14.41,53.56c0,23.16,4.8,41.37,14.41,54.64
			c9.61,13.27,22.94,19.9,39.99,19.9c11.98,0,21.83-2.9,29.55-8.68c7.72-5.79,13.47-13.67,17.25-23.64l14.11,6.51
			C1622.56,1775.59,1602.02,1788.74,1572.18,1788.74z"/>
		<path class="st1" d="M1769.89,1664.01c0,12.71-3.96,23.28-11.88,31.72c-7.92,8.44-18.56,13.59-31.91,15.44l49.46,75.15h-19.18
			l-46.68-73.22h-30.76v73.22h-16.16v-169.96h48.97c18.41,0,32.71,4.22,42.88,12.67C1764.8,1637.47,1769.89,1649.13,1769.89,1664.01
			z M1753.48,1664.25c0-11.18-3.76-19.78-11.28-25.81c-7.52-6.03-18.2-9.05-32.03-9.05h-31.24v70.93h32.21
			c13.27,0,23.64-3.18,31.12-9.53C1749.74,1684.44,1753.48,1675.59,1753.48,1664.25z"/>
		<path class="st1" d="M1920.31,1786.32l-20.39-53.08h-76.6l-20.39,53.08h-17.13l66.34-169.96h19.18l65.98,169.96H1920.31z
			 M1861.44,1629.75c-1.53,4.99-3.18,9.97-4.95,14.96c-1.77,4.99-3.58,9.93-5.43,14.84l-23.16,60.31h67.43l-22.92-60.43
			c-1.85-4.99-3.66-9.93-5.43-14.84c-1.77-4.9-3.46-9.85-5.07-14.84H1861.44z"/>
		<path class="st1" d="M1962.41,1786.32v-169.96h89.5v13.63h-73.34v62.24h68.27v13.39h-68.27v80.7H1962.41z"/>
		<path class="st1" d="M2129.23,1630.24v156.09h-16.04v-156.09h-52.95v-13.87h123.04v13.87H2129.23z"/>
	</g>
	<g>
		<path class="st1" d="M2477.74,2429.09c0,15.36-4.63,27.24-13.87,35.65c-9.25,8.4-22.32,12.61-39.2,12.61
			c-30.64,0-48.65-13.95-54.04-41.86l15.08-3.14c2.33,11.18,6.71,19.26,13.15,24.25c6.43,4.99,15.04,7.48,25.81,7.48
			c12.14,0,21.41-2.93,27.8-8.81c6.39-5.87,9.59-14.27,9.59-25.21c0-6.27-1.11-11.4-3.32-15.38c-2.21-3.98-5.21-7.28-8.99-9.89
			c-3.78-2.61-8.22-4.76-13.33-6.45c-5.11-1.69-10.6-3.46-16.47-5.31c-12.38-3.78-21.37-7.62-26.96-11.52
			c-5.59-3.9-9.91-8.72-12.97-14.48c-3.06-5.75-4.58-12.85-4.58-21.29c0-13.75,4.22-24.41,12.67-31.97
			c8.44-7.56,20.18-11.34,35.22-11.34c14.23,0,25.51,2.95,33.84,8.87c8.32,5.91,14.05,15.1,17.19,27.56l-15.08,3.74
			c-2.25-9.33-6.33-16.18-12.24-20.57c-5.91-4.38-13.85-6.57-23.82-6.57c-10.29,0-18.24,2.53-23.82,7.6
			c-5.59,5.07-8.38,12.42-8.38,22.07c0,6.03,1.09,11.04,3.26,15.02c2.17,3.98,5.49,7.38,9.95,10.19c4.46,2.82,12.48,6.03,24.06,9.65
			c13.35,4.26,22.62,7.86,27.8,10.8c5.19,2.94,9.31,6.19,12.36,9.77c3.06,3.58,5.37,7.7,6.94,12.36
			C2476.95,2417.59,2477.74,2422.98,2477.74,2429.09z"/>
		<path class="st1" d="M2510.43,2474.93v-169.96h88.42v13.51h-72.25v62.36h64.9v13.39h-64.9v67.19h77.2v13.51H2510.43z"/>
		<path class="st1" d="M2741.79,2352.62c0,12.71-3.96,23.28-11.88,31.72c-7.92,8.44-18.56,13.59-31.91,15.44l49.46,75.15h-19.18
			l-46.68-73.22h-30.76v73.22h-16.16v-169.96h48.97c18.41,0,32.71,4.22,42.88,12.67C2736.7,2326.08,2741.79,2337.74,2741.79,2352.62
			z M2725.38,2352.86c0-11.18-3.76-19.78-11.28-25.81c-7.52-6.03-18.2-9.05-32.03-9.05h-31.24v70.93h32.21
			c13.27,0,23.64-3.18,31.12-9.53C2721.64,2373.04,2725.38,2364.2,2725.38,2352.86z"/>
		<path class="st1" d="M2839.73,2474.93h-18.58l-63.81-169.96h17.49l46.8,128.95c4.34,12.39,7.32,21.63,8.93,27.74
			c1.37-4.58,2.75-9.17,4.16-13.75c1.41-4.58,2.91-9.17,4.52-13.75l46.8-129.19h17.37L2839.73,2474.93z"/>
		<path class="st1" d="M2928.39,2474.93v-169.96h88.42v13.51h-72.25v62.36h64.9v13.39h-64.9v67.19h77.2v13.51H2928.39z"/>
		<path class="st1" d="M3159.75,2352.62c0,12.71-3.96,23.28-11.88,31.72c-7.92,8.44-18.56,13.59-31.91,15.44l49.46,75.15h-19.18
			l-46.68-73.22h-30.76v73.22h-16.16v-169.96h48.97c18.41,0,32.71,4.22,42.88,12.67
			C3154.67,2326.08,3159.75,2337.74,3159.75,2352.62z M3143.35,2352.86c0-11.18-3.76-19.78-11.28-25.81
			c-7.52-6.03-18.2-9.05-32.03-9.05h-31.24v70.93h32.21c13.27,0,23.64-3.18,31.12-9.53
			C3139.61,2373.04,3143.35,2364.2,3143.35,2352.86z"/>
	</g>
	<g>
		<path class="st1" d="M1280.34,1820.18v80.45h-134.31v379.76h-81.13v-379.76H930.58v-80.45H1280.34z"/>
		<path class="st1" d="M1436.47,1820.18v460.21h-80.45v-460.21H1436.47z"/>
		<path class="st1" d="M1593.28,2280.4h-88.63l161.59-409.08c17.04-42.95,48.41-59.32,96.81-59.32c47.73,0,79.09,16.36,95.45,59.32
			l155.45,409.08h-89.32l-139.77-370.21c-4.09-10.91-11.59-15.68-22.5-15.68c-10.91,0-18.41,4.77-23.18,15.68L1593.28,2280.4z"/>
		<path class="st1" d="M2161.89,2280.4h-80.45v-368.17c0-60,34.09-100.22,105.68-100.22c64.09,0,92.72,32.73,111.81,85.22
			l134.31,293.85c5.45,10.91,14.32,19.09,29.32,19.09c17.05,0,27.27-10.23,27.27-25.91v-364.08h81.13v367.49
			c0,60.68-34.77,100.91-105.68,100.91c-64.09,0-93.41-32.73-112.5-85.22l-134.31-293.85c-6.14-13.64-14.32-19.77-28.64-19.77
			c-18.41,0-27.95,10.23-27.95,26.59V2280.4z"/>
		<path class="st1" d="M2971.86,1820.18v301.35c0,92.04-48.41,158.86-170.45,158.86h-156.13v-80.45h151.36
			c72.27,0,94.09-34.77,94.09-79.09v-300.67H2971.86z"/>
		<path class="st1" d="M3159.35,1820.18v460.21h-80.45v-460.21H3159.35z"/>
	</g>
	<path class="st1" d="M3315.76,2573.12L3840.88,2048l-525.12-525.12V780.24l-742.64,0L2048,255.12l-525.12,525.12l-742.64,0
		l0,742.64L255.12,2048l525.12,525.12l0,742.64h742.64L2048,3840.88l525.12-525.12h742.64V2573.12z M3790.49,2048l-474.73,474.73
		v-949.47L3790.49,2048z M3280.13,2558.36l-721.76,721.76H1537.64l-721.76-721.76l0-1020.73l721.76-721.76l1020.73,0l721.76,721.76
		V2558.36z M3280.13,815.87v671.38l-671.38-671.38L3280.13,815.87z M2048,305.51l474.73,474.73l-949.47,0L2048,305.51z
		 M815.87,815.87l671.38,0l-671.37,671.38L815.87,815.87z M305.51,2048l474.73-474.73l0,949.47L305.51,2048z M815.87,3280.13
		l0-671.38l671.38,671.38H815.87z M2048,3790.49l-474.73-474.73h949.47L2048,3790.49z M2608.75,3280.13l671.38-671.38v671.38
		H2608.75z"/>
</g>
</svg>
